<svg width="491" height="159" viewBox="0 0 491 159" fill="none" xmlns="http://www.w3.org/2000/svg">
<path d="M9.324 96.4119L0.972 71.2119H5.832L13.284 93.9999H10.872L18.612 71.2119H22.932L30.456 93.9999H28.116L35.748 71.2119H40.212L31.86 96.4119H26.892L20.016 75.8559H21.312L14.328 96.4119H9.324ZM55.028 76.9719C56.564 76.9719 57.932 77.2719 59.132 77.8719C60.356 78.4719 61.316 79.3959 62.012 80.6439C62.708 81.8679 63.056 83.4519 63.056 85.3959V96.4119H58.556V85.9719C58.556 84.2679 58.148 82.9959 57.332 82.1559C56.54 81.3159 55.424 80.8959 53.984 80.8959C52.928 80.8959 51.992 81.1119 51.176 81.5439C50.36 81.9759 49.724 82.6239 49.268 83.4879C48.836 84.3279 48.62 85.3959 48.62 86.6919V96.4119H44.12V69.6999H48.62V82.3719L47.648 80.7879C48.32 79.5639 49.292 78.6279 50.564 77.9799C51.86 77.3079 53.348 76.9719 55.028 76.9719ZM69.9969 103.648C69.0609 103.648 68.1249 103.492 67.1889 103.18C66.2529 102.868 65.4729 102.436 64.8489 101.884L66.6489 98.5719C67.1049 98.9799 67.6209 99.3039 68.1969 99.5439C68.7729 99.7839 69.3609 99.9039 69.9609 99.9039C70.7769 99.9039 71.4369 99.6999 71.9409 99.2919C72.4449 98.8839 72.9129 98.1999 73.3449 97.2399L74.4609 94.7199L74.8209 94.1799L82.0929 77.1879H86.4129L77.4129 97.9599C76.8129 99.3999 76.1409 100.54 75.3969 101.38C74.6769 102.22 73.8609 102.808 72.9489 103.144C72.0609 103.48 71.0769 103.648 69.9969 103.648ZM73.9569 97.0959L65.2809 77.1879H69.9609L77.0169 93.7839L73.9569 97.0959ZM107.995 96.6639C105.979 96.6639 104.179 96.2439 102.595 95.4039C101.035 94.5399 99.8107 93.3639 98.9227 91.8759C98.0347 90.3879 97.5907 88.6959 97.5907 86.7999C97.5907 84.8799 98.0347 83.1879 98.9227 81.7239C99.8107 80.2359 101.035 79.0719 102.595 78.2319C104.179 77.3919 105.979 76.9719 107.995 76.9719C109.867 76.9719 111.511 77.3559 112.927 78.1239C114.367 78.8679 115.459 79.9719 116.203 81.4359L112.747 83.4519C112.171 82.5399 111.463 81.8679 110.623 81.4359C109.807 81.0039 108.919 80.7879 107.959 80.7879C106.855 80.7879 105.859 81.0279 104.971 81.5079C104.083 81.9879 103.387 82.6839 102.883 83.5959C102.379 84.4839 102.127 85.5519 102.127 86.7999C102.127 88.0479 102.379 89.1279 102.883 90.0399C103.387 90.9279 104.083 91.6119 104.971 92.0919C105.859 92.5719 106.855 92.8119 107.959 92.8119C108.919 92.8119 109.807 92.5959 110.623 92.1639C111.463 91.7319 112.171 91.0599 112.747 90.1479L116.203 92.1639C115.459 93.6039 114.367 94.7199 112.927 95.5119C111.511 96.2799 109.867 96.6639 107.995 96.6639ZM130.825 76.9719C132.361 76.9719 133.729 77.2719 134.929 77.8719C136.153 78.4719 137.113 79.3959 137.809 80.6439C138.505 81.8679 138.853 83.4519 138.853 85.3959V96.4119H134.353V85.9719C134.353 84.2679 133.945 82.9959 133.129 82.1559C132.337 81.3159 131.221 80.8959 129.781 80.8959C128.725 80.8959 127.789 81.1119 126.973 81.5439C126.157 81.9759 125.521 82.6239 125.065 83.4879C124.633 84.3279 124.417 85.3959 124.417 86.6919V96.4119H119.917V69.6999H124.417V82.3719L123.445 80.7879C124.117 79.5639 125.089 78.6279 126.361 77.9799C127.657 77.3079 129.145 76.9719 130.825 76.9719ZM153.237 96.6639C151.269 96.6639 149.517 96.2439 147.981 95.4039C146.445 94.5399 145.233 93.3639 144.345 91.8759C143.457 90.3879 143.013 88.6959 143.013 86.7999C143.013 84.8799 143.457 83.1879 144.345 81.7239C145.233 80.2359 146.445 79.0719 147.981 78.2319C149.517 77.3919 151.269 76.9719 153.237 76.9719C155.229 76.9719 156.993 77.3919 158.529 78.2319C160.089 79.0719 161.301 80.2239 162.165 81.6879C163.053 83.1519 163.497 84.8559 163.497 86.7999C163.497 88.6959 163.053 90.3879 162.165 91.8759C161.301 93.3639 160.089 94.5399 158.529 95.4039C156.993 96.2439 155.229 96.6639 153.237 96.6639ZM153.237 92.8119C154.341 92.8119 155.325 92.5719 156.189 92.0919C157.053 91.6119 157.725 90.9159 158.205 90.0039C158.709 89.0919 158.961 88.0239 158.961 86.7999C158.961 85.5519 158.709 84.4839 158.205 83.5959C157.725 82.6839 157.053 81.9879 156.189 81.5079C155.325 81.0279 154.353 80.7879 153.273 80.7879C152.169 80.7879 151.185 81.0279 150.321 81.5079C149.481 81.9879 148.809 82.6839 148.305 83.5959C147.801 84.4839 147.549 85.5519 147.549 86.7999C147.549 88.0239 147.801 89.0919 148.305 90.0039C148.809 90.9159 149.481 91.6119 150.321 92.0919C151.185 92.5719 152.157 92.8119 153.237 92.8119ZM176.44 96.6639C174.472 96.6639 172.72 96.2439 171.184 95.4039C169.648 94.5399 168.436 93.3639 167.548 91.8759C166.66 90.3879 166.216 88.6959 166.216 86.7999C166.216 84.8799 166.66 83.1879 167.548 81.7239C168.436 80.2359 169.648 79.0719 171.184 78.2319C172.72 77.3919 174.472 76.9719 176.44 76.9719C178.432 76.9719 180.196 77.3919 181.732 78.2319C183.292 79.0719 184.504 80.2239 185.368 81.6879C186.256 83.1519 186.7 84.8559 186.7 86.7999C186.7 88.6959 186.256 90.3879 185.368 91.8759C184.504 93.3639 183.292 94.5399 181.732 95.4039C180.196 96.2439 178.432 96.6639 176.44 96.6639ZM176.44 92.8119C177.544 92.8119 178.528 92.5719 179.392 92.0919C180.256 91.6119 180.928 90.9159 181.408 90.0039C181.912 89.0919 182.164 88.0239 182.164 86.7999C182.164 85.5519 181.912 84.4839 181.408 83.5959C180.928 82.6839 180.256 81.9879 179.392 81.5079C178.528 81.0279 177.556 80.7879 176.476 80.7879C175.372 80.7879 174.388 81.0279 173.524 81.5079C172.684 81.9879 172.012 82.6839 171.508 83.5959C171.004 84.4839 170.752 85.5519 170.752 86.7999C170.752 88.0239 171.004 89.0919 171.508 90.0039C172.012 90.9159 172.684 91.6119 173.524 92.0919C174.388 92.5719 175.36 92.8119 176.44 92.8119ZM196.943 96.6639C195.335 96.6639 193.787 96.4599 192.299 96.0519C190.835 95.6199 189.671 95.1039 188.807 94.5039L190.535 91.0839C191.399 91.6359 192.431 92.0919 193.631 92.4519C194.831 92.8119 196.031 92.9919 197.231 92.9919C198.647 92.9919 199.667 92.7999 200.291 92.4159C200.939 92.0319 201.263 91.5159 201.263 90.8679C201.263 90.3399 201.047 89.9439 200.615 89.6799C200.183 89.3919 199.619 89.1759 198.923 89.0319C198.227 88.8879 197.447 88.7559 196.583 88.6359C195.743 88.5159 194.891 88.3599 194.027 88.1679C193.187 87.9519 192.419 87.6519 191.723 87.2679C191.027 86.8599 190.463 86.3199 190.031 85.6479C189.599 84.9759 189.383 84.0879 189.383 82.9839C189.383 81.7599 189.731 80.7039 190.427 79.8159C191.123 78.9039 192.095 78.2079 193.343 77.7279C194.615 77.2239 196.115 76.9719 197.843 76.9719C199.139 76.9719 200.447 77.1159 201.767 77.4039C203.087 77.6919 204.179 78.0999 205.043 78.6279L203.315 82.0479C202.403 81.4959 201.479 81.1239 200.543 80.9319C199.631 80.7159 198.719 80.6079 197.807 80.6079C196.439 80.6079 195.419 80.8119 194.747 81.2199C194.099 81.6279 193.775 82.1439 193.775 82.7679C193.775 83.3439 193.991 83.7759 194.423 84.0639C194.855 84.3519 195.419 84.5799 196.115 84.7479C196.811 84.9159 197.579 85.0599 198.419 85.1799C199.283 85.2759 200.135 85.4319 200.975 85.6479C201.815 85.8639 202.583 86.1639 203.279 86.5479C203.999 86.9079 204.575 87.4239 205.007 88.0959C205.439 88.7679 205.655 89.6439 205.655 90.7239C205.655 91.9239 205.295 92.9679 204.575 93.8559C203.879 94.7439 202.883 95.4399 201.587 95.9439C200.291 96.4239 198.743 96.6639 196.943 96.6639ZM218.566 96.6639C216.43 96.6639 214.558 96.2439 212.95 95.4039C211.366 94.5399 210.13 93.3639 209.242 91.8759C208.378 90.3879 207.946 88.6959 207.946 86.7999C207.946 84.8799 208.366 83.1879 209.206 81.7239C210.07 80.2359 211.246 79.0719 212.734 78.2319C214.246 77.3919 215.962 76.9719 217.882 76.9719C219.754 76.9719 221.422 77.3799 222.886 78.1959C224.35 79.0119 225.502 80.1639 226.342 81.6519C227.182 83.1399 227.602 84.8919 227.602 86.9079C227.602 87.0999 227.59 87.3159 227.566 87.5559C227.566 87.7959 227.554 88.0239 227.53 88.2399H211.51V85.2519H225.154L223.39 86.1879C223.414 85.0839 223.186 84.1119 222.706 83.2719C222.226 82.4319 221.566 81.7719 220.726 81.2919C219.91 80.8119 218.962 80.5719 217.882 80.5719C216.778 80.5719 215.806 80.8119 214.966 81.2919C214.15 81.7719 213.502 82.4439 213.022 83.3079C212.566 84.1479 212.338 85.1439 212.338 86.2959V87.0159C212.338 88.1679 212.602 89.1879 213.13 90.0759C213.658 90.9639 214.402 91.6479 215.362 92.1279C216.322 92.6079 217.426 92.8479 218.674 92.8479C219.754 92.8479 220.726 92.6799 221.59 92.3439C222.454 92.0079 223.222 91.4799 223.894 90.7599L226.306 93.5319C225.442 94.5399 224.35 95.3199 223.03 95.8719C221.734 96.3999 220.246 96.6639 218.566 96.6639ZM242.306 96.4119V71.2119H252.674C254.906 71.2119 256.814 71.5719 258.398 72.2919C260.006 73.0119 261.242 74.0439 262.106 75.3879C262.97 76.7319 263.402 78.3279 263.402 80.1759C263.402 82.0239 262.97 83.6199 262.106 84.9639C261.242 86.2839 260.006 87.3039 258.398 88.0239C256.814 88.7199 254.906 89.0679 252.674 89.0679H244.898L246.986 86.9439V96.4119H242.306ZM258.794 96.4119L252.422 87.2679H257.426L263.834 96.4119H258.794ZM246.986 87.4479L244.898 85.2159H252.458C254.522 85.2159 256.07 84.7719 257.102 83.8839C258.158 82.9959 258.686 81.7599 258.686 80.1759C258.686 78.5679 258.158 77.3319 257.102 76.4679C256.07 75.6039 254.522 75.1719 252.458 75.1719H244.898L246.986 72.8679V87.4479ZM277.242 96.6639C275.106 96.6639 273.234 96.2439 271.626 95.4039C270.042 94.5399 268.806 93.3639 267.918 91.8759C267.054 90.3879 266.622 88.6959 266.622 86.7999C266.622 84.8799 267.042 83.1879 267.882 81.7239C268.746 80.2359 269.922 79.0719 271.41 78.2319C272.922 77.3919 274.638 76.9719 276.558 76.9719C278.43 76.9719 280.098 77.3799 281.562 78.1959C283.026 79.0119 284.178 80.1639 285.018 81.6519C285.858 83.1399 286.278 84.8919 286.278 86.9079C286.278 87.0999 286.266 87.3159 286.242 87.5559C286.242 87.7959 286.23 88.0239 286.206 88.2399H270.186V85.2519H283.83L282.066 86.1879C282.09 85.0839 281.862 84.1119 281.382 83.2719C280.902 82.4319 280.242 81.7719 279.402 81.2919C278.586 80.8119 277.638 80.5719 276.558 80.5719C275.454 80.5719 274.482 80.8119 273.642 81.2919C272.826 81.7719 272.178 82.4439 271.698 83.3079C271.242 84.1479 271.014 85.1439 271.014 86.2959V87.0159C271.014 88.1679 271.278 89.1879 271.806 90.0759C272.334 90.9639 273.078 91.6479 274.038 92.1279C274.998 92.6079 276.102 92.8479 277.35 92.8479C278.43 92.8479 279.402 92.6799 280.266 92.3439C281.13 92.0079 281.898 91.4799 282.57 90.7599L284.982 93.5319C284.118 94.5399 283.026 95.3199 281.706 95.8719C280.41 96.3999 278.922 96.6639 277.242 96.6639ZM301.508 76.9719C303.044 76.9719 304.412 77.2719 305.612 77.8719C306.836 78.4719 307.796 79.3959 308.492 80.6439C309.188 81.8679 309.536 83.4519 309.536 85.3959V96.4119H305.036V85.9719C305.036 84.2679 304.628 82.9959 303.812 82.1559C303.02 81.3159 301.904 80.8959 300.464 80.8959C299.408 80.8959 298.472 81.1119 297.656 81.5439C296.84 81.9759 296.204 82.6239 295.748 83.4879C295.316 84.3279 295.1 85.3959 295.1 86.6919V96.4119H290.6V77.1879H294.884V82.3719L294.128 80.7879C294.8 79.5639 295.772 78.6279 297.044 77.9799C298.34 77.3079 299.828 76.9719 301.508 76.9719ZM315.245 96.4119V77.1879H319.745V96.4119H315.245ZM317.513 74.0199C316.673 74.0199 315.977 73.7559 315.425 73.2279C314.897 72.6999 314.633 72.0639 314.633 71.3199C314.633 70.5519 314.897 69.9159 315.425 69.4119C315.977 68.8839 316.673 68.6199 317.513 68.6199C318.353 68.6199 319.037 68.8719 319.565 69.3759C320.117 69.8559 320.393 70.4679 320.393 71.2119C320.393 72.0039 320.129 72.6759 319.601 73.2279C319.073 73.7559 318.377 74.0199 317.513 74.0199ZM477.615 88.0599C477.615 87.1719 477.759 86.3919 478.047 85.7199C478.335 85.0479 478.707 84.4479 479.163 83.9199C479.619 83.3919 480.099 82.8999 480.603 82.4439C481.131 81.9879 481.623 81.5439 482.079 81.1119C482.535 80.6799 482.907 80.2239 483.195 79.7439C483.483 79.2639 483.627 78.7239 483.627 78.1239C483.627 77.1159 483.219 76.2999 482.403 75.6759C481.587 75.0519 480.495 74.7399 479.127 74.7399C477.807 74.7399 476.655 74.9799 475.671 75.4599C474.711 75.9399 473.907 76.6239 473.259 77.5119L469.767 75.2439C470.775 73.8759 472.095 72.8079 473.727 72.0399C475.359 71.2479 477.291 70.8519 479.523 70.8519C481.275 70.8519 482.811 71.1159 484.131 71.6439C485.451 72.1479 486.483 72.8919 487.227 73.8759C487.971 74.8359 488.343 76.0119 488.343 77.4039C488.343 78.3639 488.187 79.2039 487.875 79.9239C487.587 80.6439 487.203 81.2799 486.723 81.8319C486.267 82.3599 485.775 82.8639 485.247 83.3439C484.719 83.7999 484.215 84.2559 483.735 84.7119C483.279 85.1679 482.907 85.6599 482.619 86.1879C482.331 86.7159 482.187 87.3399 482.187 88.0599H477.615ZM479.919 96.6639C479.079 96.6639 478.383 96.3879 477.831 95.8359C477.303 95.2839 477.039 94.6239 477.039 93.8559C477.039 93.0879 477.303 92.4399 477.831 91.9119C478.383 91.3599 479.079 91.0839 479.919 91.0839C480.759 91.0839 481.443 91.3599 481.971 91.9119C482.499 92.4399 482.763 93.0879 482.763 93.8559C482.763 94.6239 482.499 95.2839 481.971 95.8359C481.443 96.3879 480.759 96.6639 479.919 96.6639Z" fill="#747474"/>
<path d="M341.616 96.4119V73.9919H332.8V69.8119H355.372V73.9919H346.556V96.4119H341.616ZM359.08 96.4119V69.8119H370.024C372.38 69.8119 374.394 70.1919 376.066 70.9519C377.763 71.7119 379.068 72.8012 379.98 74.2199C380.892 75.6385 381.348 77.3232 381.348 79.2739C381.348 81.2245 380.892 82.9092 379.98 84.3279C379.068 85.7212 377.763 86.7979 376.066 87.5579C374.394 88.2925 372.38 88.6599 370.024 88.6599H361.816L364.02 86.4179V96.4119H359.08ZM376.484 96.4119L369.758 86.7599H375.04L381.804 96.4119H376.484ZM364.02 86.9499L361.816 84.5939H369.796C371.974 84.5939 373.608 84.1252 374.698 83.1879C375.812 82.2505 376.37 80.9459 376.37 79.2739C376.37 77.5765 375.812 76.2719 374.698 75.3599C373.608 74.4479 371.974 73.9919 369.796 73.9919H361.816L364.02 71.5599V86.9499ZM398.313 96.7919C394.665 96.7919 391.802 95.7659 389.725 93.7139C387.673 91.6619 386.647 88.6979 386.647 84.8219V69.8119H391.587V84.6319C391.587 87.3679 392.169 89.3565 393.335 90.5979C394.525 91.8392 396.197 92.4599 398.351 92.4599C400.504 92.4599 402.163 91.8392 403.329 90.5979C404.494 89.3565 405.077 87.3679 405.077 84.6319V69.8119H409.941V84.8219C409.941 88.6979 408.902 91.6619 406.825 93.7139C404.773 95.7659 401.935 96.7919 398.313 96.7919ZM425.105 96.7919C423.028 96.7919 421.039 96.5005 419.139 95.9179C417.239 95.3099 415.732 94.5372 414.617 93.5999L416.327 89.7619C417.391 90.5979 418.708 91.2945 420.279 91.8519C421.85 92.4092 423.458 92.6879 425.105 92.6879C426.498 92.6879 427.626 92.5359 428.487 92.2319C429.348 91.9279 429.982 91.5225 430.387 91.0159C430.792 90.4839 430.995 89.8885 430.995 89.2299C430.995 88.4192 430.704 87.7732 430.121 87.2919C429.538 86.7852 428.778 86.3925 427.841 86.1139C426.929 85.8099 425.903 85.5312 424.763 85.2779C423.648 85.0245 422.521 84.7332 421.381 84.4039C420.266 84.0492 419.24 83.6059 418.303 83.0739C417.391 82.5165 416.644 81.7819 416.061 80.8699C415.478 79.9579 415.187 78.7925 415.187 77.3739C415.187 75.9299 415.567 74.6125 416.327 73.4219C417.112 72.2059 418.29 71.2432 419.861 70.5339C421.457 69.7992 423.471 69.4319 425.903 69.4319C427.499 69.4319 429.082 69.6345 430.653 70.0399C432.224 70.4452 433.592 71.0279 434.757 71.7879L433.199 75.6259C432.008 74.9165 430.78 74.3972 429.513 74.0679C428.246 73.7132 427.03 73.5359 425.865 73.5359C424.497 73.5359 423.382 73.7005 422.521 74.0299C421.685 74.3592 421.064 74.7899 420.659 75.3219C420.279 75.8539 420.089 76.4619 420.089 77.1459C420.089 77.9565 420.368 78.6152 420.925 79.1219C421.508 79.6032 422.255 79.9832 423.167 80.2619C424.104 80.5405 425.143 80.8192 426.283 81.0979C427.423 81.3512 428.55 81.6425 429.665 81.9719C430.805 82.3012 431.831 82.7319 432.743 83.2639C433.68 83.7959 434.428 84.5179 434.985 85.4299C435.568 86.3419 435.859 87.4945 435.859 88.8879C435.859 90.3065 435.466 91.6239 434.681 92.8399C433.921 94.0305 432.743 94.9932 431.147 95.7279C429.551 96.4372 427.537 96.7919 425.105 96.7919ZM445.782 96.4119V73.9919H436.966V69.8119H459.538V73.9919H450.722V96.4119H445.782Z" fill="#1560BD"/>
<path d="M455.427 113.536C472.318 81.9703 461.069 41.4169 433.239 22.1872C404.572 2.37706 356.571 8.20418 338.364 41.5964C327.838 60.9008 325.109 91.0005 335.176 111.393C353.941 149.409 411.218 154.576 445.5 125.5" stroke="#1560BD" stroke-width="5" stroke-miterlimit="1.5" stroke-linecap="round" stroke-linejoin="round"/>
<path fill-rule="evenodd" clip-rule="evenodd" d="M453.36 115.794C451.648 119.196 448.997 121.972 447.734 123.128C453.001 128.672 460.156 134.879 466.02 139.622C469.681 142.585 473.465 145.022 477.234 147.808C480.216 150.013 486.079 151.602 486.088 146.266C486.094 142.183 481.756 138.614 479.008 136.125C471.419 129.247 461.217 122.216 453.36 115.794Z" stroke="#1560BD" stroke-width="5" stroke-miterlimit="1.5" stroke-linecap="round" stroke-linejoin="round"/>
</svg>
